<svg xmlns="http://www.w3.org/2000/svg" width="1600" height="1000" viewBox="0 0 1600 1000" role="img" aria-label="CreatePee preview">
  <defs>
    <linearGradient id="bg" x1="0" y1="0" x2="1" y2="1">
      <stop offset="0%" stop-color="#0f172a"/>
      <stop offset="45%" stop-color="#064e3b"/>
      <stop offset="100%" stop-color="#0b0f14"/>
    </linearGradient>
    <linearGradient id="accent" x1="0" y1="0" x2="1" y2="0">
      <stop offset="0%" stop-color="#22c55e"/>
      <stop offset="100%" stop-color="#86efac"/>
    </linearGradient>
  </defs>
  <rect width="1600" height="1000" fill="url(#bg)"/>
  <rect x="120" y="120" width="1360" height="760" rx="36" fill="#0b141a" stroke="#1f2937" stroke-width="2"/>
  <rect x="200" y="200" width="520" height="540" rx="24" fill="#0f1c22" stroke="#1f2937" stroke-width="2"/>
  <rect x="760" y="200" width="640" height="220" rx="24" fill="#0f1c22" stroke="#1f2937" stroke-width="2"/>
  <rect x="760" y="460" width="640" height="280" rx="24" fill="#0f1c22" stroke="#1f2937" stroke-width="2"/>
  <rect x="240" y="240" width="440" height="36" rx="18" fill="#111827"/>
  <rect x="240" y="300" width="360" height="18" rx="9" fill="#1f2937"/>
  <rect x="240" y="330" width="300" height="18" rx="9" fill="#1f2937"/>
  <rect x="240" y="380" width="440" height="260" rx="16" fill="#0b1117" stroke="#1f2937" stroke-width="2"/>
  <rect x="800" y="240" width="560" height="36" rx="18" fill="#111827"/>
  <rect x="800" y="300" width="400" height="18" rx="9" fill="#1f2937"/>
  <rect x="800" y="330" width="340" height="18" rx="9" fill="#1f2937"/>
  <rect x="800" y="500" width="560" height="36" rx="18" fill="#111827"/>
  <rect x="800" y="560" width="420" height="18" rx="9" fill="#1f2937"/>
  <rect x="800" y="590" width="360" height="18" rx="9" fill="#1f2937"/>
  <rect x="240" y="700" width="200" height="24" rx="12" fill="url(#accent)"/>
  <rect x="460" y="700" width="160" height="24" rx="12" fill="#0f1c22" stroke="#22c55e" stroke-width="2"/>
  <rect x="800" y="720" width="240" height="24" rx="12" fill="url(#accent)"/>
  <text x="240" y="168" font-family="Arial, sans-serif" font-size="32" fill="#e2e8f0" letter-spacing="2">CREATEPEE</text>
  <text x="240" y="212" font-family="Arial, sans-serif" font-size="16" fill="#94a3b8">Web Editing Suite</text>
</svg>
